<?xml version="1.0" encoding="UTF-8" standalone="no"?>
<!DOCTYPE svg PUBLIC "-//W3C//DTD SVG 1.1//EN"
 "http://www.w3.org/Graphics/SVG/1.1/DTD/svg11.dtd">
<!-- Generated by graphviz version 2.47.3 (20210619.2315)
 -->
<!-- Title: snakemake_dag Pages: 1 -->
<svg width="702pt" height="425pt"
 viewBox="0.00 0.00 702.00 425.00" xmlns="http://www.w3.org/2000/svg" xmlns:xlink="http://www.w3.org/1999/xlink">
<g id="graph0" class="graph" transform="scale(1 1) rotate(0) translate(4 421)">
<title>snakemake_dag</title>
<polygon fill="white" stroke="transparent" points="-4,4 -4,-421 698,-421 698,4 -4,4"/>
<!-- 0 -->
<g id="node1" class="node">
<title>0</title>
<path fill="none" stroke="#d85656" stroke-width="2" d="M468,-36C468,-36 438,-36 438,-36 432,-36 426,-30 426,-24 426,-24 426,-12 426,-12 426,-6 432,0 438,0 438,0 468,0 468,0 474,0 480,-6 480,-12 480,-12 480,-24 480,-24 480,-30 474,-36 468,-36"/>
<text text-anchor="middle" x="453" y="-15.5" font-family="sans" font-size="10.00">all</text>
</g>
<!-- 1 -->
<g id="node2" class="node">
<title>1</title>
<path fill="none" stroke="#d8d356" stroke-width="2" d="M373.5,-108C373.5,-108 290.5,-108 290.5,-108 284.5,-108 278.5,-102 278.5,-96 278.5,-96 278.5,-84 278.5,-84 278.5,-78 284.5,-72 290.5,-72 290.5,-72 373.5,-72 373.5,-72 379.5,-72 385.5,-78 385.5,-84 385.5,-84 385.5,-96 385.5,-96 385.5,-102 379.5,-108 373.5,-108"/>
<text text-anchor="middle" x="332" y="-87.5" font-family="sans" font-size="10.00">filter_mutect_calls</text>
</g>
<!-- 1&#45;&gt;0 -->
<g id="edge1" class="edge">
<title>1&#45;&gt;0</title>
<path fill="none" stroke="grey" stroke-width="2" d="M361.6,-71.88C378.28,-62.23 399.25,-50.1 416.89,-39.89"/>
<polygon fill="grey" stroke="grey" stroke-width="2" points="418.87,-42.79 425.77,-34.75 415.37,-36.73 418.87,-42.79"/>
</g>
<!-- 2 -->
<g id="node3" class="node">
<title>2</title>
<path fill="none" stroke="#56d0d8" stroke-width="2" d="M62,-180C62,-180 12,-180 12,-180 6,-180 0,-174 0,-168 0,-168 0,-156 0,-156 0,-150 6,-144 12,-144 12,-144 62,-144 62,-144 68,-144 74,-150 74,-156 74,-156 74,-168 74,-168 74,-174 68,-180 62,-180"/>
<text text-anchor="middle" x="37" y="-159.5" font-family="sans" font-size="10.00">merge_vcfs</text>
</g>
<!-- 2&#45;&gt;1 -->
<g id="edge3" class="edge">
<title>2&#45;&gt;1</title>
<path fill="none" stroke="grey" stroke-width="2" d="M74,-146.8C77.03,-145.8 80.06,-144.85 83,-144 144.96,-126.06 217.2,-111.35 267.86,-102.02"/>
<polygon fill="grey" stroke="grey" stroke-width="2" points="268.81,-105.4 278.02,-100.16 267.55,-98.52 268.81,-105.4"/>
</g>
<!-- 3 -->
<g id="node4" class="node">
<title>3</title>
<path fill="none" stroke="#56d863" stroke-width="2" d="M213.5,-257C213.5,-257 134.5,-257 134.5,-257 128.5,-257 122.5,-251 122.5,-245 122.5,-245 122.5,-228 122.5,-228 122.5,-222 128.5,-216 134.5,-216 134.5,-216 213.5,-216 213.5,-216 219.5,-216 225.5,-222 225.5,-228 225.5,-228 225.5,-245 225.5,-245 225.5,-251 219.5,-257 213.5,-257"/>
<text text-anchor="middle" x="174" y="-245" font-family="sans" font-size="10.00">mutect2</text>
<text text-anchor="middle" x="174" y="-234" font-family="sans" font-size="10.00">locus: chr1</text>
<text text-anchor="middle" x="174" y="-223" font-family="sans" font-size="10.00">sample: NA12878</text>
</g>
<!-- 3&#45;&gt;2 -->
<g id="edge7" class="edge">
<title>3&#45;&gt;2</title>
<path fill="none" stroke="grey" stroke-width="2" d="M136.93,-215.88C118.81,-206.29 96.95,-194.73 78.3,-184.86"/>
<polygon fill="grey" stroke="grey" stroke-width="2" points="79.91,-181.75 69.44,-180.17 76.64,-187.94 79.91,-181.75"/>
</g>
<!-- 9 -->
<g id="node10" class="node">
<title>9</title>
<path fill="none" stroke="#56d8c9" stroke-width="2" d="M243.5,-180C243.5,-180 104.5,-180 104.5,-180 98.5,-180 92.5,-174 92.5,-168 92.5,-168 92.5,-156 92.5,-156 92.5,-150 98.5,-144 104.5,-144 104.5,-144 243.5,-144 243.5,-144 249.5,-144 255.5,-150 255.5,-156 255.5,-156 255.5,-168 255.5,-168 255.5,-174 249.5,-180 243.5,-180"/>
<text text-anchor="middle" x="174" y="-159.5" font-family="sans" font-size="10.00">learn_read_orientation_model</text>
</g>
<!-- 3&#45;&gt;9 -->
<g id="edge12" class="edge">
<title>3&#45;&gt;9</title>
<path fill="none" stroke="grey" stroke-width="2" d="M174,-215.69C174,-207.91 174,-198.84 174,-190.45"/>
<polygon fill="grey" stroke="grey" stroke-width="2" points="177.5,-190.32 174,-180.32 170.5,-190.32 177.5,-190.32"/>
</g>
<!-- 10 -->
<g id="node11" class="node">
<title>10</title>
<path fill="none" stroke="#d86e56" stroke-width="2" d="M378.5,-180C378.5,-180 285.5,-180 285.5,-180 279.5,-180 273.5,-174 273.5,-168 273.5,-168 273.5,-156 273.5,-156 273.5,-150 279.5,-144 285.5,-144 285.5,-144 378.5,-144 378.5,-144 384.5,-144 390.5,-150 390.5,-156 390.5,-156 390.5,-168 390.5,-168 390.5,-174 384.5,-180 378.5,-180"/>
<text text-anchor="middle" x="332" y="-159.5" font-family="sans" font-size="10.00">merge_mutect_stats</text>
</g>
<!-- 3&#45;&gt;10 -->
<g id="edge13" class="edge">
<title>3&#45;&gt;10</title>
<path fill="none" stroke="grey" stroke-width="2" d="M216.76,-215.88C238.01,-206.13 263.74,-194.32 285.49,-184.34"/>
<polygon fill="grey" stroke="grey" stroke-width="2" points="287.22,-187.4 294.85,-180.05 284.3,-181.04 287.22,-187.4"/>
</g>
<!-- 4 -->
<g id="node5" class="node">
<title>4</title>
<path fill="none" stroke="#97d856" stroke-width="2" d="M533.5,-180C533.5,-180 420.5,-180 420.5,-180 414.5,-180 408.5,-174 408.5,-168 408.5,-168 408.5,-156 408.5,-156 408.5,-150 414.5,-144 420.5,-144 420.5,-144 533.5,-144 533.5,-144 539.5,-144 545.5,-150 545.5,-156 545.5,-156 545.5,-168 545.5,-168 545.5,-174 539.5,-180 533.5,-180"/>
<text text-anchor="middle" x="477" y="-159.5" font-family="sans" font-size="10.00">calculate_contamination</text>
</g>
<!-- 4&#45;&gt;1 -->
<g id="edge4" class="edge">
<title>4&#45;&gt;1</title>
<path fill="none" stroke="grey" stroke-width="2" d="M441.53,-143.88C421.88,-134.39 397.28,-122.51 376.37,-112.42"/>
<polygon fill="grey" stroke="grey" stroke-width="2" points="377.88,-109.26 367.36,-108.07 374.84,-115.57 377.88,-109.26"/>
</g>
<!-- 5 -->
<g id="node6" class="node">
<title>5</title>
<path fill="none" stroke="#56d8a9" stroke-width="2" d="M383.5,-254.5C383.5,-254.5 264.5,-254.5 264.5,-254.5 258.5,-254.5 252.5,-248.5 252.5,-242.5 252.5,-242.5 252.5,-230.5 252.5,-230.5 252.5,-224.5 258.5,-218.5 264.5,-218.5 264.5,-218.5 383.5,-218.5 383.5,-218.5 389.5,-218.5 395.5,-224.5 395.5,-230.5 395.5,-230.5 395.5,-242.5 395.5,-242.5 395.5,-248.5 389.5,-254.5 383.5,-254.5"/>
<text text-anchor="middle" x="324" y="-234" font-family="sans" font-size="10.00">gather_pileup_summaries</text>
</g>
<!-- 5&#45;&gt;4 -->
<g id="edge8" class="edge">
<title>5&#45;&gt;4</title>
<path fill="none" stroke="grey" stroke-width="2" d="M360.26,-218.32C381.69,-208.16 409.02,-195.21 431.85,-184.39"/>
<polygon fill="grey" stroke="grey" stroke-width="2" points="433.46,-187.5 441,-180.06 430.47,-181.18 433.46,-187.5"/>
</g>
<!-- 6 -->
<g id="node7" class="node">
<title>6</title>
<path fill="none" stroke="#568ad8" stroke-width="2" d="M376,-345C376,-345 272,-345 272,-345 266,-345 260,-339 260,-333 260,-333 260,-305 260,-305 260,-299 266,-293 272,-293 272,-293 376,-293 376,-293 382,-293 388,-299 388,-305 388,-305 388,-333 388,-333 388,-339 382,-345 376,-345"/>
<text text-anchor="middle" x="324" y="-333" font-family="sans" font-size="10.00">get_pileup_summaries</text>
<text text-anchor="middle" x="324" y="-322" font-family="sans" font-size="10.00">locus: chr1</text>
<text text-anchor="middle" x="324" y="-311" font-family="sans" font-size="10.00">sample: NA12878</text>
<text text-anchor="middle" x="324" y="-300" font-family="sans" font-size="10.00">unit: T</text>
</g>
<!-- 6&#45;&gt;5 -->
<g id="edge10" class="edge">
<title>6&#45;&gt;5</title>
<path fill="none" stroke="grey" stroke-width="2" d="M324,-292.97C324,-284.01 324,-273.88 324,-264.74"/>
<polygon fill="grey" stroke="grey" stroke-width="2" points="327.5,-264.61 324,-254.61 320.5,-264.61 327.5,-264.61"/>
</g>
<!-- 7 -->
<g id="node8" class="node">
<title>7</title>
<path fill="none" stroke="#56d8a9" stroke-width="2" d="M544.5,-254.5C544.5,-254.5 425.5,-254.5 425.5,-254.5 419.5,-254.5 413.5,-248.5 413.5,-242.5 413.5,-242.5 413.5,-230.5 413.5,-230.5 413.5,-224.5 419.5,-218.5 425.5,-218.5 425.5,-218.5 544.5,-218.5 544.5,-218.5 550.5,-218.5 556.5,-224.5 556.5,-230.5 556.5,-230.5 556.5,-242.5 556.5,-242.5 556.5,-248.5 550.5,-254.5 544.5,-254.5"/>
<text text-anchor="middle" x="485" y="-234" font-family="sans" font-size="10.00">gather_pileup_summaries</text>
</g>
<!-- 7&#45;&gt;4 -->
<g id="edge9" class="edge">
<title>7&#45;&gt;4</title>
<path fill="none" stroke="grey" stroke-width="2" d="M483.1,-218.32C482.18,-209.92 481.04,-199.62 480,-190.19"/>
<polygon fill="grey" stroke="grey" stroke-width="2" points="483.46,-189.61 478.88,-180.06 476.5,-190.38 483.46,-189.61"/>
</g>
<!-- 8 -->
<g id="node9" class="node">
<title>8</title>
<path fill="none" stroke="#568ad8" stroke-width="2" d="M537,-345C537,-345 433,-345 433,-345 427,-345 421,-339 421,-333 421,-333 421,-305 421,-305 421,-299 427,-293 433,-293 433,-293 537,-293 537,-293 543,-293 549,-299 549,-305 549,-305 549,-333 549,-333 549,-339 543,-345 537,-345"/>
<text text-anchor="middle" x="485" y="-333" font-family="sans" font-size="10.00">get_pileup_summaries</text>
<text text-anchor="middle" x="485" y="-322" font-family="sans" font-size="10.00">locus: chr1</text>
<text text-anchor="middle" x="485" y="-311" font-family="sans" font-size="10.00">sample: NA12878</text>
<text text-anchor="middle" x="485" y="-300" font-family="sans" font-size="10.00">unit: N</text>
</g>
<!-- 8&#45;&gt;7 -->
<g id="edge11" class="edge">
<title>8&#45;&gt;7</title>
<path fill="none" stroke="grey" stroke-width="2" d="M485,-292.97C485,-284.01 485,-273.88 485,-264.74"/>
<polygon fill="grey" stroke="grey" stroke-width="2" points="488.5,-264.61 485,-254.61 481.5,-264.61 488.5,-264.61"/>
</g>
<!-- 9&#45;&gt;1 -->
<g id="edge5" class="edge">
<title>9&#45;&gt;1</title>
<path fill="none" stroke="grey" stroke-width="2" d="M212.65,-143.88C234.25,-134.31 261.35,-122.3 284.27,-112.15"/>
<polygon fill="grey" stroke="grey" stroke-width="2" points="285.75,-115.32 293.47,-108.07 282.91,-108.92 285.75,-115.32"/>
</g>
<!-- 10&#45;&gt;1 -->
<g id="edge6" class="edge">
<title>10&#45;&gt;1</title>
<path fill="none" stroke="grey" stroke-width="2" d="M332,-143.7C332,-135.98 332,-126.71 332,-118.11"/>
<polygon fill="grey" stroke="grey" stroke-width="2" points="335.5,-118.1 332,-108.1 328.5,-118.1 335.5,-118.1"/>
</g>
<!-- 11 -->
<g id="node12" class="node">
<title>11</title>
<path fill="none" stroke="#c6d856" stroke-width="2" d="M608,-108C608,-108 540,-108 540,-108 534,-108 528,-102 528,-96 528,-96 528,-84 528,-84 528,-78 534,-72 540,-72 540,-72 608,-72 608,-72 614,-72 620,-78 620,-84 620,-84 620,-96 620,-96 620,-102 614,-108 608,-108"/>
<text text-anchor="middle" x="574" y="-87.5" font-family="sans" font-size="10.00">bcftools_concat</text>
</g>
<!-- 11&#45;&gt;0 -->
<g id="edge2" class="edge">
<title>11&#45;&gt;0</title>
<path fill="none" stroke="grey" stroke-width="2" d="M544.4,-71.88C527.72,-62.23 506.75,-50.1 489.11,-39.89"/>
<polygon fill="grey" stroke="grey" stroke-width="2" points="490.63,-36.73 480.23,-34.75 487.13,-42.79 490.63,-36.73"/>
</g>
<!-- 12 -->
<g id="node13" class="node">
<title>12</title>
<path fill="none" stroke="#d8a456" stroke-width="2" d="M667.5,-254.5C667.5,-254.5 608.5,-254.5 608.5,-254.5 602.5,-254.5 596.5,-248.5 596.5,-242.5 596.5,-242.5 596.5,-230.5 596.5,-230.5 596.5,-224.5 602.5,-218.5 608.5,-218.5 608.5,-218.5 667.5,-218.5 667.5,-218.5 673.5,-218.5 679.5,-224.5 679.5,-230.5 679.5,-230.5 679.5,-242.5 679.5,-242.5 679.5,-248.5 673.5,-254.5 667.5,-254.5"/>
<text text-anchor="middle" x="638" y="-234" font-family="sans" font-size="10.00">bcftools_view</text>
</g>
<!-- 12&#45;&gt;11 -->
<g id="edge14" class="edge">
<title>12&#45;&gt;11</title>
<path fill="none" stroke="grey" stroke-width="2" d="M620.63,-218.49C611.1,-208.2 599.85,-194.33 593,-180 583.66,-160.46 578.87,-136.32 576.44,-118.12"/>
<polygon fill="grey" stroke="grey" stroke-width="2" points="579.92,-117.68 575.27,-108.16 572.97,-118.5 579.92,-117.68"/>
</g>
<!-- 15 -->
<g id="node16" class="node">
<title>15</title>
<path fill="none" stroke="#61d856" stroke-width="2" d="M677.5,-180C677.5,-180 614.5,-180 614.5,-180 608.5,-180 602.5,-174 602.5,-168 602.5,-168 602.5,-156 602.5,-156 602.5,-150 608.5,-144 614.5,-144 614.5,-144 677.5,-144 677.5,-144 683.5,-144 689.5,-150 689.5,-156 689.5,-156 689.5,-168 689.5,-168 689.5,-174 683.5,-180 677.5,-180"/>
<text text-anchor="middle" x="646" y="-159.5" font-family="sans" font-size="10.00">bcftools_index</text>
</g>
<!-- 12&#45;&gt;15 -->
<g id="edge18" class="edge">
<title>12&#45;&gt;15</title>
<path fill="none" stroke="grey" stroke-width="2" d="M639.9,-218.32C640.82,-209.92 641.96,-199.62 643,-190.19"/>
<polygon fill="grey" stroke="grey" stroke-width="2" points="646.5,-190.38 644.12,-180.06 639.54,-189.61 646.5,-190.38"/>
</g>
<!-- 13 -->
<g id="node14" class="node">
<title>13</title>
<path fill="none" stroke="#56a2d8" stroke-width="2" d="M682,-339.5C682,-339.5 594,-339.5 594,-339.5 588,-339.5 582,-333.5 582,-327.5 582,-327.5 582,-310.5 582,-310.5 582,-304.5 588,-298.5 594,-298.5 594,-298.5 682,-298.5 682,-298.5 688,-298.5 694,-304.5 694,-310.5 694,-310.5 694,-327.5 694,-327.5 694,-333.5 688,-339.5 682,-339.5"/>
<text text-anchor="middle" x="638" y="-327.5" font-family="sans" font-size="10.00">vardict</text>
<text text-anchor="middle" x="638" y="-316.5" font-family="sans" font-size="10.00">locus: chr1:1&#45;15009</text>
<text text-anchor="middle" x="638" y="-305.5" font-family="sans" font-size="10.00">sample: NA12878</text>
</g>
<!-- 13&#45;&gt;12 -->
<g id="edge16" class="edge">
<title>13&#45;&gt;12</title>
<path fill="none" stroke="grey" stroke-width="2" d="M638,-298.1C638,-288.11 638,-275.86 638,-264.99"/>
<polygon fill="grey" stroke="grey" stroke-width="2" points="641.5,-264.72 638,-254.72 634.5,-264.72 641.5,-264.72"/>
</g>
<!-- 14 -->
<g id="node15" class="node">
<title>14</title>
<path fill="none" stroke="#78d856" stroke-width="2" d="M656.5,-417C656.5,-417 619.5,-417 619.5,-417 613.5,-417 607.5,-411 607.5,-405 607.5,-405 607.5,-393 607.5,-393 607.5,-387 613.5,-381 619.5,-381 619.5,-381 656.5,-381 656.5,-381 662.5,-381 668.5,-387 668.5,-393 668.5,-393 668.5,-405 668.5,-405 668.5,-411 662.5,-417 656.5,-417"/>
<text text-anchor="middle" x="638" y="-396.5" font-family="sans" font-size="10.00">split_bed</text>
</g>
<!-- 14&#45;&gt;13 -->
<g id="edge17" class="edge">
<title>14&#45;&gt;13</title>
<path fill="none" stroke="grey" stroke-width="2" d="M638,-380.69C638,-371.6 638,-360.21 638,-349.76"/>
<polygon fill="grey" stroke="grey" stroke-width="2" points="641.5,-349.74 638,-339.74 634.5,-349.74 641.5,-349.74"/>
</g>
<!-- 15&#45;&gt;11 -->
<g id="edge15" class="edge">
<title>15&#45;&gt;11</title>
<path fill="none" stroke="grey" stroke-width="2" d="M628.2,-143.7C619.4,-135.14 608.62,-124.66 599,-115.3"/>
<polygon fill="grey" stroke="grey" stroke-width="2" points="601.2,-112.57 591.59,-108.1 596.32,-117.58 601.2,-112.57"/>
</g>
</g>
</svg>
