<?xml version="1.0" encoding="UTF-8" standalone="no"?>
<!DOCTYPE svg PUBLIC "-//W3C//DTD SVG 1.1//EN"
 "http://www.w3.org/Graphics/SVG/1.1/DTD/svg11.dtd">
<!-- Generated by graphviz version 2.47.3 (20210619.2315)
 -->
<!-- Title: snakemake_dag Pages: 1 -->
<svg width="716pt" height="574pt"
 viewBox="0.00 0.00 716.00 574.00" xmlns="http://www.w3.org/2000/svg" xmlns:xlink="http://www.w3.org/1999/xlink">
<g id="graph0" class="graph" transform="scale(1 1) rotate(0) translate(4 570)">
<title>snakemake_dag</title>
<polygon fill="white" stroke="transparent" points="-4,4 -4,-570 712,-570 712,4 -4,4"/>
<!-- 0 -->
<g id="node1" class="node">
<title>0</title>
<path fill="none" stroke="#56a2d8" stroke-width="2" d="M468,-36C468,-36 438,-36 438,-36 432,-36 426,-30 426,-24 426,-24 426,-12 426,-12 426,-6 432,0 438,0 438,0 468,0 468,0 474,0 480,-6 480,-12 480,-12 480,-24 480,-24 480,-30 474,-36 468,-36"/>
<text text-anchor="middle" x="453" y="-15.5" font-family="sans" font-size="10.00">all</text>
</g>
<!-- 1 -->
<g id="node2" class="node">
<title>1</title>
<path fill="none" stroke="#d8bc56" stroke-width="2" d="M373.5,-108C373.5,-108 290.5,-108 290.5,-108 284.5,-108 278.5,-102 278.5,-96 278.5,-96 278.5,-84 278.5,-84 278.5,-78 284.5,-72 290.5,-72 290.5,-72 373.5,-72 373.5,-72 379.5,-72 385.5,-78 385.5,-84 385.5,-84 385.5,-96 385.5,-96 385.5,-102 379.5,-108 373.5,-108"/>
<text text-anchor="middle" x="332" y="-87.5" font-family="sans" font-size="10.00">filter_mutect_calls</text>
</g>
<!-- 1&#45;&gt;0 -->
<g id="edge1" class="edge">
<title>1&#45;&gt;0</title>
<path fill="none" stroke="grey" stroke-width="2" d="M361.6,-71.88C378.28,-62.23 399.25,-50.1 416.89,-39.89"/>
<polygon fill="grey" stroke="grey" stroke-width="2" points="418.87,-42.79 425.77,-34.75 415.37,-36.73 418.87,-42.79"/>
</g>
<!-- 2 -->
<g id="node3" class="node">
<title>2</title>
<path fill="none" stroke="#d8d356" stroke-width="2" d="M62,-180C62,-180 12,-180 12,-180 6,-180 0,-174 0,-168 0,-168 0,-156 0,-156 0,-150 6,-144 12,-144 12,-144 62,-144 62,-144 68,-144 74,-150 74,-156 74,-156 74,-168 74,-168 74,-174 68,-180 62,-180"/>
<text text-anchor="middle" x="37" y="-159.5" font-family="sans" font-size="10.00">merge_vcfs</text>
</g>
<!-- 2&#45;&gt;1 -->
<g id="edge3" class="edge">
<title>2&#45;&gt;1</title>
<path fill="none" stroke="grey" stroke-width="2" d="M74,-146.8C77.03,-145.8 80.06,-144.85 83,-144 144.96,-126.06 217.2,-111.35 267.86,-102.02"/>
<polygon fill="grey" stroke="grey" stroke-width="2" points="268.81,-105.4 278.02,-100.16 267.55,-98.52 268.81,-105.4"/>
</g>
<!-- 3 -->
<g id="node4" class="node">
<title>3</title>
<path fill="none" stroke="#56d0d8" stroke-width="2" d="M210.5,-257C210.5,-257 131.5,-257 131.5,-257 125.5,-257 119.5,-251 119.5,-245 119.5,-245 119.5,-228 119.5,-228 119.5,-222 125.5,-216 131.5,-216 131.5,-216 210.5,-216 210.5,-216 216.5,-216 222.5,-222 222.5,-228 222.5,-228 222.5,-245 222.5,-245 222.5,-251 216.5,-257 210.5,-257"/>
<text text-anchor="middle" x="171" y="-245" font-family="sans" font-size="10.00">mutect2</text>
<text text-anchor="middle" x="171" y="-234" font-family="sans" font-size="10.00">locus: chr1</text>
<text text-anchor="middle" x="171" y="-223" font-family="sans" font-size="10.00">sample: NA12878</text>
</g>
<!-- 3&#45;&gt;2 -->
<g id="edge7" class="edge">
<title>3&#45;&gt;2</title>
<path fill="none" stroke="grey" stroke-width="2" d="M134.74,-215.88C117.18,-206.38 96.03,-194.94 77.9,-185.13"/>
<polygon fill="grey" stroke="grey" stroke-width="2" points="79.19,-181.85 68.73,-180.17 75.86,-188 79.19,-181.85"/>
</g>
<!-- 13 -->
<g id="node14" class="node">
<title>13</title>
<path fill="none" stroke="#afd856" stroke-width="2" d="M243.5,-180C243.5,-180 104.5,-180 104.5,-180 98.5,-180 92.5,-174 92.5,-168 92.5,-168 92.5,-156 92.5,-156 92.5,-150 98.5,-144 104.5,-144 104.5,-144 243.5,-144 243.5,-144 249.5,-144 255.5,-150 255.5,-156 255.5,-156 255.5,-168 255.5,-168 255.5,-174 249.5,-180 243.5,-180"/>
<text text-anchor="middle" x="174" y="-159.5" font-family="sans" font-size="10.00">learn_read_orientation_model</text>
</g>
<!-- 3&#45;&gt;13 -->
<g id="edge16" class="edge">
<title>3&#45;&gt;13</title>
<path fill="none" stroke="grey" stroke-width="2" d="M171.82,-215.69C172.14,-207.91 172.52,-198.84 172.86,-190.45"/>
<polygon fill="grey" stroke="grey" stroke-width="2" points="176.37,-190.46 173.28,-180.32 169.37,-190.17 176.37,-190.46"/>
</g>
<!-- 14 -->
<g id="node15" class="node">
<title>14</title>
<path fill="none" stroke="#61d856" stroke-width="2" d="M378.5,-180C378.5,-180 285.5,-180 285.5,-180 279.5,-180 273.5,-174 273.5,-168 273.5,-168 273.5,-156 273.5,-156 273.5,-150 279.5,-144 285.5,-144 285.5,-144 378.5,-144 378.5,-144 384.5,-144 390.5,-150 390.5,-156 390.5,-156 390.5,-168 390.5,-168 390.5,-174 384.5,-180 378.5,-180"/>
<text text-anchor="middle" x="332" y="-159.5" font-family="sans" font-size="10.00">merge_mutect_stats</text>
</g>
<!-- 3&#45;&gt;14 -->
<g id="edge17" class="edge">
<title>3&#45;&gt;14</title>
<path fill="none" stroke="grey" stroke-width="2" d="M214.57,-215.88C236.33,-206.08 262.68,-194.22 284.9,-184.21"/>
<polygon fill="grey" stroke="grey" stroke-width="2" points="286.47,-187.34 294.15,-180.05 283.59,-180.96 286.47,-187.34"/>
</g>
<!-- 4 -->
<g id="node5" class="node">
<title>4</title>
<path fill="none" stroke="#d8a456" stroke-width="2" d="M266.5,-337C266.5,-337 73.5,-337 73.5,-337 67.5,-337 61.5,-331 61.5,-325 61.5,-325 61.5,-313 61.5,-313 61.5,-307 67.5,-301 73.5,-301 73.5,-301 266.5,-301 266.5,-301 272.5,-301 278.5,-307 278.5,-313 278.5,-313 278.5,-325 278.5,-325 278.5,-331 272.5,-337 266.5,-337"/>
<text text-anchor="middle" x="170" y="-316.5" font-family="sans" font-size="10.00">wgs_somatic_pon_mutect2_somatic_pon</text>
</g>
<!-- 4&#45;&gt;3 -->
<g id="edge8" class="edge">
<title>4&#45;&gt;3</title>
<path fill="none" stroke="grey" stroke-width="2" d="M170.21,-300.93C170.33,-291.1 170.49,-278.49 170.63,-267.1"/>
<polygon fill="grey" stroke="grey" stroke-width="2" points="174.13,-267.14 170.76,-257.1 167.13,-267.05 174.13,-267.14"/>
</g>
<!-- 5 -->
<g id="node6" class="node">
<title>5</title>
<path fill="none" stroke="#97d856" stroke-width="2" d="M286.5,-417C286.5,-417 53.5,-417 53.5,-417 47.5,-417 41.5,-411 41.5,-405 41.5,-405 41.5,-393 41.5,-393 41.5,-387 47.5,-381 53.5,-381 53.5,-381 286.5,-381 286.5,-381 292.5,-381 298.5,-387 298.5,-393 298.5,-393 298.5,-405 298.5,-405 298.5,-411 292.5,-417 286.5,-417"/>
<text text-anchor="middle" x="170" y="-396.5" font-family="sans" font-size="10.00">wgs_somatic_pon_mutect2_genomics_db_import</text>
</g>
<!-- 5&#45;&gt;4 -->
<g id="edge9" class="edge">
<title>5&#45;&gt;4</title>
<path fill="none" stroke="grey" stroke-width="2" d="M170,-380.69C170,-370.89 170,-358.42 170,-347.33"/>
<polygon fill="grey" stroke="grey" stroke-width="2" points="173.5,-347.26 170,-337.26 166.5,-347.26 173.5,-347.26"/>
</g>
<!-- 6 -->
<g id="node7" class="node">
<title>6</title>
<path fill="none" stroke="#5673d8" stroke-width="2" d="M247.5,-489C247.5,-489 92.5,-489 92.5,-489 86.5,-489 80.5,-483 80.5,-477 80.5,-477 80.5,-465 80.5,-465 80.5,-459 86.5,-453 92.5,-453 92.5,-453 247.5,-453 247.5,-453 253.5,-453 259.5,-459 259.5,-465 259.5,-465 259.5,-477 259.5,-477 259.5,-483 253.5,-489 247.5,-489"/>
<text text-anchor="middle" x="170" y="-468.5" font-family="sans" font-size="10.00">wgs_somatic_pon_merge_vcfs_N</text>
</g>
<!-- 6&#45;&gt;5 -->
<g id="edge10" class="edge">
<title>6&#45;&gt;5</title>
<path fill="none" stroke="grey" stroke-width="2" d="M170,-452.7C170,-444.98 170,-435.71 170,-427.11"/>
<polygon fill="grey" stroke="grey" stroke-width="2" points="173.5,-427.1 170,-417.1 166.5,-427.1 173.5,-427.1"/>
</g>
<!-- 7 -->
<g id="node8" class="node">
<title>7</title>
<path fill="none" stroke="#56d892" stroke-width="2" d="M252.5,-566C252.5,-566 87.5,-566 87.5,-566 81.5,-566 75.5,-560 75.5,-554 75.5,-554 75.5,-537 75.5,-537 75.5,-531 81.5,-525 87.5,-525 87.5,-525 252.5,-525 252.5,-525 258.5,-525 264.5,-531 264.5,-537 264.5,-537 264.5,-554 264.5,-554 264.5,-560 258.5,-566 252.5,-566"/>
<text text-anchor="middle" x="170" y="-554" font-family="sans" font-size="10.00">wgs_somatic_pon_mutect2_normal</text>
<text text-anchor="middle" x="170" y="-543" font-family="sans" font-size="10.00">locus: chr1</text>
<text text-anchor="middle" x="170" y="-532" font-family="sans" font-size="10.00">sample: NA12878</text>
</g>
<!-- 7&#45;&gt;6 -->
<g id="edge11" class="edge">
<title>7&#45;&gt;6</title>
<path fill="none" stroke="grey" stroke-width="2" d="M170,-524.69C170,-516.91 170,-507.84 170,-499.45"/>
<polygon fill="grey" stroke="grey" stroke-width="2" points="173.5,-499.32 170,-489.32 166.5,-499.32 173.5,-499.32"/>
</g>
<!-- 8 -->
<g id="node9" class="node">
<title>8</title>
<path fill="none" stroke="#d88556" stroke-width="2" d="M533.5,-180C533.5,-180 420.5,-180 420.5,-180 414.5,-180 408.5,-174 408.5,-168 408.5,-168 408.5,-156 408.5,-156 408.5,-150 414.5,-144 420.5,-144 420.5,-144 533.5,-144 533.5,-144 539.5,-144 545.5,-150 545.5,-156 545.5,-156 545.5,-168 545.5,-168 545.5,-174 539.5,-180 533.5,-180"/>
<text text-anchor="middle" x="477" y="-159.5" font-family="sans" font-size="10.00">calculate_contamination</text>
</g>
<!-- 8&#45;&gt;1 -->
<g id="edge4" class="edge">
<title>8&#45;&gt;1</title>
<path fill="none" stroke="grey" stroke-width="2" d="M441.53,-143.88C421.88,-134.39 397.28,-122.51 376.37,-112.42"/>
<polygon fill="grey" stroke="grey" stroke-width="2" points="377.88,-109.26 367.36,-108.07 374.84,-115.57 377.88,-109.26"/>
</g>
<!-- 9 -->
<g id="node10" class="node">
<title>9</title>
<path fill="none" stroke="#d86e56" stroke-width="2" d="M414.5,-254.5C414.5,-254.5 295.5,-254.5 295.5,-254.5 289.5,-254.5 283.5,-248.5 283.5,-242.5 283.5,-242.5 283.5,-230.5 283.5,-230.5 283.5,-224.5 289.5,-218.5 295.5,-218.5 295.5,-218.5 414.5,-218.5 414.5,-218.5 420.5,-218.5 426.5,-224.5 426.5,-230.5 426.5,-230.5 426.5,-242.5 426.5,-242.5 426.5,-248.5 420.5,-254.5 414.5,-254.5"/>
<text text-anchor="middle" x="355" y="-234" font-family="sans" font-size="10.00">gather_pileup_summaries</text>
</g>
<!-- 9&#45;&gt;8 -->
<g id="edge12" class="edge">
<title>9&#45;&gt;8</title>
<path fill="none" stroke="grey" stroke-width="2" d="M383.91,-218.32C400.47,-208.48 421.45,-196.01 439.29,-185.41"/>
<polygon fill="grey" stroke="grey" stroke-width="2" points="441.49,-188.18 448.3,-180.06 437.91,-182.16 441.49,-188.18"/>
</g>
<!-- 10 -->
<g id="node11" class="node">
<title>10</title>
<path fill="none" stroke="#56d8c9" stroke-width="2" d="M413,-345C413,-345 309,-345 309,-345 303,-345 297,-339 297,-333 297,-333 297,-305 297,-305 297,-299 303,-293 309,-293 309,-293 413,-293 413,-293 419,-293 425,-299 425,-305 425,-305 425,-333 425,-333 425,-339 419,-345 413,-345"/>
<text text-anchor="middle" x="361" y="-333" font-family="sans" font-size="10.00">get_pileup_summaries</text>
<text text-anchor="middle" x="361" y="-322" font-family="sans" font-size="10.00">locus: chr1</text>
<text text-anchor="middle" x="361" y="-311" font-family="sans" font-size="10.00">sample: NA12878</text>
<text text-anchor="middle" x="361" y="-300" font-family="sans" font-size="10.00">unit: T</text>
</g>
<!-- 10&#45;&gt;9 -->
<g id="edge14" class="edge">
<title>10&#45;&gt;9</title>
<path fill="none" stroke="grey" stroke-width="2" d="M359.13,-292.97C358.47,-284.01 357.71,-273.88 357.03,-264.74"/>
<polygon fill="grey" stroke="grey" stroke-width="2" points="360.51,-264.32 356.28,-254.61 353.53,-264.84 360.51,-264.32"/>
</g>
<!-- 11 -->
<g id="node12" class="node">
<title>11</title>
<path fill="none" stroke="#d86e56" stroke-width="2" d="M575.5,-254.5C575.5,-254.5 456.5,-254.5 456.5,-254.5 450.5,-254.5 444.5,-248.5 444.5,-242.5 444.5,-242.5 444.5,-230.5 444.5,-230.5 444.5,-224.5 450.5,-218.5 456.5,-218.5 456.5,-218.5 575.5,-218.5 575.5,-218.5 581.5,-218.5 587.5,-224.5 587.5,-230.5 587.5,-230.5 587.5,-242.5 587.5,-242.5 587.5,-248.5 581.5,-254.5 575.5,-254.5"/>
<text text-anchor="middle" x="516" y="-234" font-family="sans" font-size="10.00">gather_pileup_summaries</text>
</g>
<!-- 11&#45;&gt;8 -->
<g id="edge13" class="edge">
<title>11&#45;&gt;8</title>
<path fill="none" stroke="grey" stroke-width="2" d="M506.76,-218.32C502.05,-209.56 496.22,-198.73 490.97,-188.97"/>
<polygon fill="grey" stroke="grey" stroke-width="2" points="494,-187.21 486.18,-180.06 487.83,-190.52 494,-187.21"/>
</g>
<!-- 12 -->
<g id="node13" class="node">
<title>12</title>
<path fill="none" stroke="#56d8c9" stroke-width="2" d="M566,-345C566,-345 462,-345 462,-345 456,-345 450,-339 450,-333 450,-333 450,-305 450,-305 450,-299 456,-293 462,-293 462,-293 566,-293 566,-293 572,-293 578,-299 578,-305 578,-305 578,-333 578,-333 578,-339 572,-345 566,-345"/>
<text text-anchor="middle" x="514" y="-333" font-family="sans" font-size="10.00">get_pileup_summaries</text>
<text text-anchor="middle" x="514" y="-322" font-family="sans" font-size="10.00">locus: chr1</text>
<text text-anchor="middle" x="514" y="-311" font-family="sans" font-size="10.00">sample: NA12878</text>
<text text-anchor="middle" x="514" y="-300" font-family="sans" font-size="10.00">unit: N</text>
</g>
<!-- 12&#45;&gt;11 -->
<g id="edge15" class="edge">
<title>12&#45;&gt;11</title>
<path fill="none" stroke="grey" stroke-width="2" d="M514.62,-292.97C514.84,-284.01 515.1,-273.88 515.32,-264.74"/>
<polygon fill="grey" stroke="grey" stroke-width="2" points="518.83,-264.69 515.57,-254.61 511.83,-264.52 518.83,-264.69"/>
</g>
<!-- 13&#45;&gt;1 -->
<g id="edge5" class="edge">
<title>13&#45;&gt;1</title>
<path fill="none" stroke="grey" stroke-width="2" d="M212.65,-143.88C234.25,-134.31 261.35,-122.3 284.27,-112.15"/>
<polygon fill="grey" stroke="grey" stroke-width="2" points="285.75,-115.32 293.47,-108.07 282.91,-108.92 285.75,-115.32"/>
</g>
<!-- 14&#45;&gt;1 -->
<g id="edge6" class="edge">
<title>14&#45;&gt;1</title>
<path fill="none" stroke="grey" stroke-width="2" d="M332,-143.7C332,-135.98 332,-126.71 332,-118.11"/>
<polygon fill="grey" stroke="grey" stroke-width="2" points="335.5,-118.1 332,-108.1 328.5,-118.1 335.5,-118.1"/>
</g>
<!-- 15 -->
<g id="node16" class="node">
<title>15</title>
<path fill="none" stroke="#78d856" stroke-width="2" d="M611,-108C611,-108 543,-108 543,-108 537,-108 531,-102 531,-96 531,-96 531,-84 531,-84 531,-78 537,-72 543,-72 543,-72 611,-72 611,-72 617,-72 623,-78 623,-84 623,-84 623,-96 623,-96 623,-102 617,-108 611,-108"/>
<text text-anchor="middle" x="577" y="-87.5" font-family="sans" font-size="10.00">bcftools_concat</text>
</g>
<!-- 15&#45;&gt;0 -->
<g id="edge2" class="edge">
<title>15&#45;&gt;0</title>
<path fill="none" stroke="grey" stroke-width="2" d="M546.67,-71.88C529.25,-62.04 507.27,-49.64 488.98,-39.31"/>
<polygon fill="grey" stroke="grey" stroke-width="2" points="490.5,-36.15 480.07,-34.28 487.05,-42.24 490.5,-36.15"/>
</g>
<!-- 16 -->
<g id="node17" class="node">
<title>16</title>
<path fill="none" stroke="#56d8a9" stroke-width="2" d="M678.5,-254.5C678.5,-254.5 619.5,-254.5 619.5,-254.5 613.5,-254.5 607.5,-248.5 607.5,-242.5 607.5,-242.5 607.5,-230.5 607.5,-230.5 607.5,-224.5 613.5,-218.5 619.5,-218.5 619.5,-218.5 678.5,-218.5 678.5,-218.5 684.5,-218.5 690.5,-224.5 690.5,-230.5 690.5,-230.5 690.5,-242.5 690.5,-242.5 690.5,-248.5 684.5,-254.5 678.5,-254.5"/>
<text text-anchor="middle" x="649" y="-234" font-family="sans" font-size="10.00">bcftools_view</text>
</g>
<!-- 16&#45;&gt;15 -->
<g id="edge18" class="edge">
<title>16&#45;&gt;15</title>
<path fill="none" stroke="grey" stroke-width="2" d="M627.68,-218.34C616.6,-208.3 603.78,-194.72 596,-180 585.81,-160.73 581.09,-136.39 578.9,-118.04"/>
<polygon fill="grey" stroke="grey" stroke-width="2" points="582.37,-117.6 577.88,-108.01 575.41,-118.31 582.37,-117.6"/>
</g>
<!-- 19 -->
<g id="node20" class="node">
<title>19</title>
<path fill="none" stroke="#d85656" stroke-width="2" d="M680.5,-180C680.5,-180 617.5,-180 617.5,-180 611.5,-180 605.5,-174 605.5,-168 605.5,-168 605.5,-156 605.5,-156 605.5,-150 611.5,-144 617.5,-144 617.5,-144 680.5,-144 680.5,-144 686.5,-144 692.5,-150 692.5,-156 692.5,-156 692.5,-168 692.5,-168 692.5,-174 686.5,-180 680.5,-180"/>
<text text-anchor="middle" x="649" y="-159.5" font-family="sans" font-size="10.00">bcftools_index</text>
</g>
<!-- 16&#45;&gt;19 -->
<g id="edge22" class="edge">
<title>16&#45;&gt;19</title>
<path fill="none" stroke="grey" stroke-width="2" d="M649,-218.32C649,-209.92 649,-199.62 649,-190.19"/>
<polygon fill="grey" stroke="grey" stroke-width="2" points="652.5,-190.06 649,-180.06 645.5,-190.06 652.5,-190.06"/>
</g>
<!-- 17 -->
<g id="node18" class="node">
<title>17</title>
<path fill="none" stroke="#c6d856" stroke-width="2" d="M696,-339.5C696,-339.5 608,-339.5 608,-339.5 602,-339.5 596,-333.5 596,-327.5 596,-327.5 596,-310.5 596,-310.5 596,-304.5 602,-298.5 608,-298.5 608,-298.5 696,-298.5 696,-298.5 702,-298.5 708,-304.5 708,-310.5 708,-310.5 708,-327.5 708,-327.5 708,-333.5 702,-339.5 696,-339.5"/>
<text text-anchor="middle" x="652" y="-327.5" font-family="sans" font-size="10.00">vardict</text>
<text text-anchor="middle" x="652" y="-316.5" font-family="sans" font-size="10.00">locus: chr1:1&#45;15009</text>
<text text-anchor="middle" x="652" y="-305.5" font-family="sans" font-size="10.00">sample: NA12878</text>
</g>
<!-- 17&#45;&gt;16 -->
<g id="edge20" class="edge">
<title>17&#45;&gt;16</title>
<path fill="none" stroke="grey" stroke-width="2" d="M651.26,-298.1C650.89,-288.11 650.43,-275.86 650.02,-264.99"/>
<polygon fill="grey" stroke="grey" stroke-width="2" points="653.51,-264.58 649.64,-254.72 646.52,-264.84 653.51,-264.58"/>
</g>
<!-- 18 -->
<g id="node19" class="node">
<title>18</title>
<path fill="none" stroke="#56d863" stroke-width="2" d="M670.5,-417C670.5,-417 633.5,-417 633.5,-417 627.5,-417 621.5,-411 621.5,-405 621.5,-405 621.5,-393 621.5,-393 621.5,-387 627.5,-381 633.5,-381 633.5,-381 670.5,-381 670.5,-381 676.5,-381 682.5,-387 682.5,-393 682.5,-393 682.5,-405 682.5,-405 682.5,-411 676.5,-417 670.5,-417"/>
<text text-anchor="middle" x="652" y="-396.5" font-family="sans" font-size="10.00">split_bed</text>
</g>
<!-- 18&#45;&gt;17 -->
<g id="edge21" class="edge">
<title>18&#45;&gt;17</title>
<path fill="none" stroke="grey" stroke-width="2" d="M652,-380.69C652,-371.6 652,-360.21 652,-349.76"/>
<polygon fill="grey" stroke="grey" stroke-width="2" points="655.5,-349.74 652,-339.74 648.5,-349.74 655.5,-349.74"/>
</g>
<!-- 19&#45;&gt;15 -->
<g id="edge19" class="edge">
<title>19&#45;&gt;15</title>
<path fill="none" stroke="grey" stroke-width="2" d="M631.2,-143.7C622.4,-135.14 611.62,-124.66 602,-115.3"/>
<polygon fill="grey" stroke="grey" stroke-width="2" points="604.2,-112.57 594.59,-108.1 599.32,-117.58 604.2,-112.57"/>
</g>
</g>
</svg>
